<svg width="1440" height="5386" viewBox="0 0 1440 5386" fill="none" xmlns="http://www.w3.org/2000/svg">
<path d="M351.174 2286.16C364.596 2410.65 274.548 2522.46 150.054 2535.88C25.5605 2549.3 -86.2489 2459.26 -99.6704 2334.76C-113.092 2210.27 -23.0445 2098.46 101.449 2085.04C225.943 2071.62 337.753 2161.66 351.174 2286.16Z" fill="#FD6407"/>
<path d="M1427.38 1967.57C1437.74 2063.66 1368.24 2149.96 1272.15 2160.32C1176.06 2170.68 1089.76 2101.17 1079.4 2005.08C1069.04 1908.99 1138.54 1822.69 1234.63 1812.33C1330.73 1801.97 1417.02 1871.47 1427.38 1967.57Z" fill="#FD6407"/>
<circle cx="-0.000244141" cy="1523.7" r="160" fill="#FD6407"/>
<circle cx="1400" cy="1640.22" r="143.25" transform="rotate(-170.788 1400 1640.22)" fill="#FD6407"/>
<path d="M-129.877 4921.71C-268.197 4921.71 -698.523 5043.57 -413.386 5043.57V5894H2240L2240 4832.86C2240 4832.86 2160.08 4903.94 2101.67 4921.71C2043.27 4939.48 1715.58 4893.79 1567.44 4921.71C1419.3 4949.64 1284.05 5043.57 1119.68 5043.57C955.308 5043.57 915.201 4942.02 801.472 4949.64C687.743 4957.25 552.498 5112.11 300.449 5056.26C48.4008 5000.41 8.44202 4921.71 -129.877 4921.71Z" fill="#D9D9D9"/>
<path d="M-129.877 4944.49C-268.197 4944.49 -698.523 5066.35 -413.386 5066.35V5916.78H2240L2240 4855.64C2240 4855.64 2160.08 4926.72 2101.67 4944.49C2043.27 4962.26 1715.58 4916.57 1567.44 4944.49C1419.3 4972.42 1284.05 5066.35 1119.68 5066.35C955.308 5066.35 915.201 4964.8 801.472 4972.42C687.743 4980.03 552.498 5134.89 300.449 5079.04C48.4008 5023.19 8.44202 4944.49 -129.877 4944.49Z" fill="#FD6407"/>
<path d="M2225 912.115C2363.32 912.115 2793.64 790.261 2508.51 790.261V-60.1743L-144.879 -60.1743L-144.879 1000.97C-144.879 1000.97 -64.9561 929.885 -6.55444 912.115C51.8472 894.344 379.54 940.039 527.68 912.115C675.821 884.19 811.067 790.261 975.439 790.261C1139.81 790.261 1179.92 891.806 1293.65 884.19C1407.38 876.574 1542.62 721.719 1794.67 777.568C2046.72 833.418 2086.68 912.115 2225 912.115Z" fill="#D9D9D9"/>
<path d="M2224 899.115C2362.32 899.115 2792.64 777.261 2507.51 777.261V-73.1743L-145.879 -73.1743L-145.879 987.966C-145.879 987.966 -65.9561 916.885 -7.55444 899.115C50.8472 881.344 378.54 927.039 526.68 899.115C674.821 871.19 810.067 777.261 974.439 777.261C1138.81 777.261 1178.92 878.806 1292.65 871.19C1406.38 863.574 1541.62 708.719 1793.67 764.568C2045.72 820.418 2085.68 899.115 2224 899.115Z" fill="#FD6407"/>
<circle cx="145.38" cy="3516" r="276.476" fill="#FD6407"/>
</svg>
