<svg width="1440" height="1001" viewBox="0 0 1440 1001" fill="none" xmlns="http://www.w3.org/2000/svg">
<path d="M2225 912.115C2363.32 912.115 2793.64 790.261 2508.51 790.261V-60.1743L-144.879 -60.1743L-144.879 1000.97C-144.879 1000.97 -64.9561 929.885 -6.55444 912.115C51.8472 894.344 379.54 940.039 527.68 912.115C675.821 884.19 811.067 790.261 975.439 790.261C1139.81 790.261 1179.92 891.806 1293.65 884.19C1407.38 876.574 1542.62 721.719 1794.67 777.568C2046.72 833.418 2086.68 912.115 2225 912.115Z" fill="#D9D9D9"/>
<path d="M2224 899.115C2362.32 899.115 2792.64 777.261 2507.51 777.261V-73.1743L-145.879 -73.1743L-145.879 987.966C-145.879 987.966 -65.9561 916.885 -7.55444 899.115C50.8472 881.344 378.54 927.039 526.68 899.115C674.821 871.19 810.067 777.261 974.439 777.261C1138.81 777.261 1178.92 878.806 1292.65 871.19C1406.38 863.574 1541.62 708.719 1793.67 764.568C2045.72 820.418 2085.68 899.115 2224 899.115Z" fill="#FD6407"/>
</svg>
